<svg width="66" height="66" viewBox="0 0 66 66" fill="none" xmlns="http://www.w3.org/2000/svg">
<path fill-rule="evenodd" clip-rule="evenodd" d="M33 2.75C16.2937 2.75 2.75 16.2937 2.75 33C2.75 49.7062 16.2937 63.25 33 63.25C49.7062 63.25 63.25 49.7062 63.25 33C63.25 16.2937 49.7062 2.75 33 2.75ZM46.112 27.885C46.3534 27.609 46.5372 27.2875 46.6526 26.9395C46.768 26.5914 46.8126 26.2238 46.7837 25.8582C46.7549 25.4926 46.6533 25.1365 46.4848 24.8109C46.3164 24.4852 46.0845 24.1964 45.8028 23.9617C45.5211 23.7269 45.1953 23.5509 44.8445 23.4439C44.4938 23.3369 44.1252 23.3012 43.7604 23.3388C43.3957 23.3764 43.0421 23.4865 42.7205 23.6627C42.399 23.839 42.1159 24.0777 41.888 24.365L30.063 38.5522L23.9442 32.4307C23.4256 31.9298 22.7309 31.6526 22.0099 31.6589C21.2889 31.6652 20.5991 31.9544 20.0892 32.4642C19.5794 32.9741 19.2902 33.6639 19.2839 34.3849C19.2776 35.1059 19.5548 35.8006 20.0557 36.3192L28.3057 44.5692C28.576 44.8393 28.8995 45.0501 29.2556 45.1882C29.6118 45.3263 29.9929 45.3886 30.3745 45.3713C30.7561 45.3539 31.1299 45.2573 31.4721 45.0875C31.8143 44.9177 32.1174 44.6784 32.362 44.385L46.112 27.885Z" fill="#735CDD"/>
</svg>
