<svg width="812" height="712" viewBox="0 0 812 712" fill="none" xmlns="http://www.w3.org/2000/svg">
<rect x="89" y="87" width="623" height="623" rx="50" fill="#735CDD"/>
<circle cx="452" cy="252" r="252" fill="#F9B9F2"/>
<path d="M0.679688 563.617H623.145V203.029C623.142 200.327 622.068 197.737 620.159 195.826C618.25 193.916 615.661 192.841 612.961 192.838H10.8642C8.16406 192.841 5.57541 193.916 3.66612 195.826C1.75683 197.737 0.682805 200.327 0.679688 203.029V563.617Z" fill="#3F3F3F"/>
<path d="M603.914 206.932H19.9121V538.681H603.914V206.932Z" fill="white"/>
<path d="M0.136719 553.86V598.356C0.136699 600.201 0.499774 602.028 1.20526 603.732C1.91074 605.436 2.94481 606.985 4.24838 608.289C5.55196 609.594 7.09951 610.628 8.80273 611.334C10.5059 612.04 12.3315 612.404 14.175 612.404H243.922V700.219H240.87C240.631 700.219 240.394 700.267 240.172 700.358C239.951 700.45 239.75 700.584 239.581 700.754C239.411 700.923 239.277 701.124 239.185 701.346C239.094 701.567 239.047 701.805 239.047 702.044V708.152C239.047 708.392 239.094 708.629 239.185 708.85C239.277 709.072 239.411 709.273 239.581 709.442C239.75 709.612 239.951 709.746 240.172 709.838C240.394 709.93 240.631 709.977 240.87 709.977H383.494C383.734 709.977 383.971 709.93 384.192 709.838C384.413 709.746 384.614 709.612 384.784 709.442C384.953 709.273 385.087 709.072 385.179 708.85C385.271 708.629 385.318 708.392 385.318 708.152V702.044C385.318 701.805 385.271 701.567 385.179 701.346C385.087 701.124 384.953 700.923 384.784 700.754C384.614 700.584 384.413 700.45 384.192 700.358C383.971 700.267 383.734 700.22 383.494 700.22H380.442V612.404H610.189C612.033 612.404 613.858 612.04 615.562 611.334C617.265 610.628 618.812 609.594 620.116 608.289C621.42 606.985 622.454 605.436 623.159 603.732C623.865 602.028 624.228 600.201 624.228 598.357V553.86L0.136719 553.86Z" fill="#0F1A20"/>
<path d="M201.507 370.995H59.19C58.1982 370.993 57.2474 370.599 56.5461 369.897C55.8448 369.195 55.4504 368.244 55.4492 367.252V309.47C55.4504 308.478 55.8448 307.527 56.5461 306.825C57.2474 306.123 58.1982 305.729 59.19 305.727H201.507C202.499 305.729 203.45 306.123 204.151 306.825C204.852 307.527 205.247 308.478 205.248 309.47V367.252C205.247 368.244 204.852 369.195 204.151 369.897C203.45 370.599 202.499 370.993 201.507 370.995V370.995Z" fill="#F9B9F2"/>
<path d="M187.957 398.713H72.7428C71.5523 398.713 70.4105 398.239 69.5686 397.397C68.7268 396.555 68.2539 395.412 68.2539 394.221C68.2539 393.03 68.7268 391.887 69.5686 391.045C70.4105 390.203 71.5523 389.729 72.7428 389.729H187.957C193.746 389.649 193.804 398.794 187.957 398.713Z" fill="#E4E4E4"/>
<path d="M187.957 419.299H72.7428C71.5523 419.299 70.4105 418.826 69.5687 417.984C68.7268 417.141 68.2539 415.999 68.2539 414.808C68.2539 413.616 68.7268 412.474 69.5687 411.631C70.4105 410.789 71.5523 410.316 72.7428 410.316H187.957C193.746 410.235 193.804 419.381 187.957 419.299Z" fill="#E4E4E4"/>
<path d="M187.957 439.886H72.7428C71.5523 439.886 70.4105 439.412 69.5686 438.57C68.7268 437.728 68.2539 436.585 68.2539 435.394C68.2539 434.203 68.7268 433.06 69.5686 432.218C70.4105 431.376 71.5523 430.902 72.7428 430.902H187.957C193.746 430.822 193.804 439.967 187.957 439.886Z" fill="#E4E4E4"/>
<path d="M383.072 370.995H240.754C239.763 370.993 238.812 370.599 238.111 369.897C237.409 369.195 237.015 368.244 237.014 367.252V309.47C237.015 308.478 237.409 307.527 238.111 306.825C238.812 306.123 239.763 305.729 240.754 305.727H383.072C384.063 305.729 385.014 306.123 385.715 306.825C386.417 307.527 386.811 308.478 386.812 309.47V367.252C386.811 368.244 386.417 369.195 385.715 369.897C385.014 370.599 384.063 370.993 383.072 370.995Z" fill="#F9B9F2"/>
<path d="M369.52 398.713H254.305C253.115 398.713 251.973 398.239 251.131 397.397C250.289 396.555 249.816 395.412 249.816 394.221C249.816 393.03 250.289 391.887 251.131 391.045C251.973 390.203 253.115 389.729 254.305 389.729H369.52C375.309 389.649 375.367 398.794 369.52 398.713Z" fill="#E4E4E4"/>
<path d="M369.52 419.299H254.305C253.115 419.299 251.973 418.826 251.131 417.984C250.289 417.141 249.816 415.999 249.816 414.808C249.816 413.616 250.289 412.474 251.131 411.631C251.973 410.789 253.115 410.316 254.305 410.316H369.52C375.309 410.235 375.367 419.381 369.52 419.299Z" fill="#E4E4E4"/>
<path d="M369.52 439.886H254.305C253.115 439.886 251.973 439.412 251.131 438.57C250.289 437.728 249.816 436.585 249.816 435.394C249.816 434.203 250.289 433.06 251.131 432.218C251.973 431.376 253.115 430.902 254.305 430.902H369.52C375.309 430.822 375.367 439.967 369.52 439.886Z" fill="#E4E4E4"/>
<path d="M564.634 370.995H422.317C421.325 370.993 420.374 370.599 419.673 369.897C418.972 369.195 418.577 368.244 418.576 367.252V309.47C418.577 308.478 418.972 307.527 419.673 306.825C420.374 306.123 421.325 305.729 422.317 305.727H564.634C565.626 305.729 566.577 306.123 567.278 306.825C567.979 307.527 568.374 308.478 568.375 309.47V367.252C568.374 368.244 567.979 369.195 567.278 369.897C566.577 370.599 565.626 370.993 564.634 370.995V370.995Z" fill="#F9B9F2"/>
<path d="M551.082 398.713H435.868C434.677 398.713 433.535 398.239 432.694 397.397C431.852 396.555 431.379 395.412 431.379 394.221C431.379 393.03 431.852 391.887 432.694 391.045C433.535 390.203 434.677 389.729 435.868 389.729H551.082C556.871 389.649 556.929 398.794 551.082 398.713Z" fill="#E4E4E4"/>
<path d="M551.083 419.299H435.868C434.679 419.297 433.539 418.823 432.699 417.981C431.859 417.139 431.387 415.997 431.387 414.808C431.387 413.618 431.859 412.476 432.699 411.634C433.539 410.792 434.679 410.318 435.868 410.316H551.083C556.872 410.235 556.929 419.381 551.083 419.299Z" fill="#E4E4E4"/>
<path d="M551.082 439.886H435.868C434.677 439.886 433.535 439.412 432.694 438.57C431.852 437.728 431.379 436.585 431.379 435.394C431.379 434.203 431.852 433.06 432.694 432.218C433.535 431.376 434.677 430.902 435.868 430.902H551.082C556.871 430.822 556.929 439.967 551.082 439.886Z" fill="#E4E4E4"/>
<path d="M807.823 306.508L808.212 378.931H810.983V405.816H808.361L808.443 421.925H810.983L811.278 448.715L808.594 448.764L809.872 685.095C809.9 691.283 807.473 697.23 803.124 701.629C798.774 706.029 792.858 708.522 786.674 708.562L525.771 709.976C519.587 710.005 513.643 707.577 509.246 703.225C504.849 698.873 502.358 692.953 502.319 686.764L500.27 308.177C500.242 301.989 502.669 296.042 507.018 291.643C511.368 287.243 517.283 284.75 523.468 284.71L784.371 283.295C790.554 283.27 796.496 285.699 800.892 290.051C805.289 294.402 807.781 300.32 807.823 306.508Z" fill="#0F1A20"/>
<path d="M787.051 693.673L525.23 695.094C523.324 695.102 521.492 694.353 520.137 693.012C518.782 691.67 518.014 689.846 518.001 687.938L515.936 306.834C515.927 304.927 516.676 303.094 518.016 301.738C519.357 300.382 521.18 299.613 523.087 299.601L784.908 298.18C786.814 298.172 788.646 298.921 790.001 300.262C791.356 301.603 792.124 303.428 792.137 305.335L794.202 686.44C794.21 688.347 793.462 690.18 792.121 691.536C790.781 692.892 788.957 693.66 787.051 693.673V693.673Z" fill="white"/>
<path d="M652.963 293.138C654.059 293.138 654.947 292.249 654.947 291.153C654.947 290.056 654.059 289.167 652.963 289.167C651.867 289.167 650.979 290.056 650.979 291.153C650.979 292.249 651.867 293.138 652.963 293.138Z" fill="#2C2C2C"/>
<path d="M730.835 405.448H579.301C578.245 405.447 577.233 405.027 576.486 404.28C575.74 403.532 575.32 402.52 575.318 401.463V339.94C575.32 338.883 575.74 337.87 576.486 337.123C577.233 336.376 578.245 335.956 579.301 335.954H730.835C731.891 335.956 732.904 336.376 733.65 337.123C734.397 337.87 734.817 338.883 734.818 339.94V401.463C734.817 402.52 734.397 403.533 733.65 404.28C732.904 405.027 731.891 405.447 730.835 405.448V405.448Z" fill="#6C63FF"/>
<path d="M716.407 434.961H593.731C592.463 434.961 591.247 434.457 590.351 433.561C589.455 432.664 588.951 431.447 588.951 430.179C588.951 428.91 589.455 427.694 590.351 426.797C591.247 425.9 592.463 425.396 593.731 425.396H716.407C722.571 425.31 722.633 435.048 716.407 434.961Z" fill="#E4E4E4"/>
<path d="M716.407 456.881H593.731C592.465 456.879 591.251 456.374 590.356 455.478C589.461 454.581 588.959 453.366 588.959 452.099C588.959 450.832 589.461 449.616 590.356 448.72C591.251 447.823 592.465 447.318 593.731 447.316H716.407C722.571 447.23 722.632 456.968 716.407 456.881Z" fill="#E4E4E4"/>
<path d="M716.407 478.801H593.731C592.463 478.801 591.247 478.297 590.351 477.4C589.455 476.503 588.951 475.287 588.951 474.018C588.951 472.75 589.455 471.534 590.351 470.637C591.247 469.74 592.463 469.236 593.731 469.236H716.407C722.571 469.15 722.633 478.888 716.407 478.801Z" fill="#E4E4E4"/>
<path d="M730.835 405.448H579.301C578.245 405.447 577.233 405.027 576.486 404.28C575.74 403.532 575.32 402.52 575.318 401.463V339.94C575.32 338.883 575.74 337.87 576.486 337.123C577.233 336.376 578.245 335.956 579.301 335.954H730.835C731.891 335.956 732.904 336.376 733.65 337.123C734.397 337.87 734.817 338.883 734.818 339.94V401.463C734.817 402.52 734.397 403.533 733.65 404.28C732.904 405.027 731.891 405.447 730.835 405.448V405.448Z" fill="#F9B9F2"/>
<path d="M716.407 434.961H593.731C592.463 434.961 591.247 434.457 590.351 433.561C589.455 432.664 588.951 431.447 588.951 430.179C588.951 428.91 589.455 427.694 590.351 426.797C591.247 425.9 592.463 425.396 593.731 425.396H716.407C722.571 425.31 722.633 435.048 716.407 434.961Z" fill="#E4E4E4"/>
<path d="M716.407 456.881H593.731C592.465 456.879 591.251 456.374 590.356 455.477C589.461 454.581 588.959 453.366 588.959 452.099C588.959 450.831 589.461 449.616 590.356 448.72C591.251 447.823 592.465 447.318 593.731 447.316H716.407C722.571 447.23 722.632 456.968 716.407 456.881Z" fill="#E4E4E4"/>
<path d="M716.407 478.801H593.731C592.463 478.801 591.247 478.297 590.351 477.4C589.455 476.503 588.951 475.287 588.951 474.018C588.951 472.75 589.455 471.533 590.351 470.637C591.247 469.74 592.463 469.236 593.731 469.236H716.407C722.571 469.15 722.633 478.888 716.407 478.801Z" fill="#E4E4E4"/>
<path d="M730.835 583.966H579.301C578.245 583.965 577.233 583.545 576.486 582.797C575.74 582.05 575.32 581.037 575.318 579.981V518.458C575.32 517.401 575.74 516.388 576.486 515.641C577.233 514.894 578.245 514.473 579.301 514.472H730.835C731.891 514.473 732.904 514.894 733.65 515.641C734.397 516.388 734.817 517.401 734.818 518.458V579.981C734.817 581.037 734.397 582.05 733.65 582.798C732.904 583.545 731.891 583.965 730.835 583.966V583.966Z" fill="#F9B9F2"/>
<path d="M716.407 613.479H593.731C592.463 613.479 591.247 612.976 590.351 612.079C589.455 611.182 588.951 609.965 588.951 608.697C588.951 607.428 589.455 606.212 590.351 605.315C591.247 604.418 592.463 603.914 593.731 603.914H716.407C722.571 603.828 722.633 613.566 716.407 613.479Z" fill="#E4E4E4"/>
<path d="M716.407 635.399H593.731C592.465 635.397 591.251 634.892 590.356 633.995C589.461 633.099 588.959 631.884 588.959 630.616C588.959 629.349 589.461 628.134 590.356 627.238C591.251 626.341 592.465 625.836 593.731 625.834H716.407C722.571 625.748 722.632 635.486 716.407 635.399Z" fill="#E4E4E4"/>
<path d="M716.407 657.319H593.731C592.463 657.319 591.247 656.815 590.351 655.918C589.455 655.021 588.951 653.805 588.951 652.536C588.951 651.268 589.455 650.051 590.351 649.155C591.247 648.258 592.463 647.754 593.731 647.754H716.407C722.571 647.668 722.633 657.406 716.407 657.319Z" fill="#E4E4E4"/>
<rect x="422.564" y="366.299" width="168.655" height="345.185" rx="20" fill="#0F1A20"/>
<rect x="428.953" y="372.691" width="155.878" height="332.401" rx="16" fill="white"/>
<path d="M460.895 372.691H551.61V378.033C551.61 383.556 547.133 388.033 541.61 388.033H470.895C465.372 388.033 460.895 383.556 460.895 378.033V372.691Z" fill="#0F1A20"/>
<path d="M563.945 477.525H449.841C449.046 477.525 448.284 477.208 447.721 476.644C447.159 476.08 446.843 475.316 446.842 474.519V428.114C446.843 427.318 447.159 426.553 447.721 425.99C448.284 425.426 449.046 425.109 449.841 425.108H563.945C564.741 425.109 565.503 425.426 566.065 425.99C566.627 426.553 566.944 427.318 566.945 428.114V474.519C566.944 475.316 566.627 476.08 566.065 476.644C565.503 477.208 564.741 477.525 563.945 477.525V477.525Z" fill="#F9B9F2"/>
<path d="M553.217 499.259H460.668C459.712 499.259 458.795 498.855 458.119 498.136C457.442 497.416 457.062 496.441 457.062 495.424C457.062 494.407 457.442 493.431 458.119 492.712C458.795 491.993 459.712 491.589 460.668 491.589H553.217C557.867 491.52 557.914 499.329 553.217 499.259Z" fill="#E4E4E4"/>
<path d="M553.217 515.879H460.663C459.707 515.877 458.792 515.472 458.117 514.753C457.442 514.034 457.062 513.06 457.062 512.044C457.062 511.028 457.442 510.054 458.117 509.334C458.792 508.615 459.707 508.211 460.663 508.209H553.217C557.867 508.14 557.914 515.949 553.217 515.879Z" fill="#E4E4E4"/>
<path d="M473.984 380.971C475.08 380.971 475.968 380.082 475.968 378.985C475.968 377.889 475.08 377 473.984 377C472.888 377 472 377.889 472 378.985C472 380.082 472.888 380.971 473.984 380.971Z" fill="#262626"/>
<path d="M553.217 532.499H460.668C459.712 532.499 458.795 532.095 458.119 531.376C457.442 530.657 457.062 529.681 457.062 528.664C457.062 527.647 457.442 526.671 458.119 525.952C458.795 525.233 459.712 524.829 460.668 524.829H553.217C557.867 524.76 557.914 532.569 553.217 532.499Z" fill="#E4E4E4"/>
<path d="M563.945 616.878H449.841C449.046 616.877 448.284 616.56 447.721 615.997C447.159 615.433 446.843 614.669 446.842 613.872V567.467C446.843 566.67 447.159 565.906 447.721 565.343C448.284 564.779 449.046 564.462 449.841 564.461H563.945C564.741 564.462 565.503 564.779 566.065 565.342C566.627 565.906 566.944 566.67 566.945 567.467V613.872C566.944 614.669 566.627 615.433 566.065 615.997C565.503 616.56 564.741 616.877 563.945 616.878V616.878Z" fill="#F9B9F2"/>
<path d="M553.217 638.611H460.668C459.712 638.611 458.795 638.207 458.119 637.488C457.442 636.769 457.062 635.794 457.062 634.776C457.062 633.759 457.442 632.784 458.119 632.065C458.795 631.346 459.712 630.942 460.668 630.942H553.217C557.867 630.873 557.914 638.681 553.217 638.611Z" fill="#E4E4E4"/>
<path d="M553.217 655.231H460.663C459.707 655.23 458.792 654.825 458.117 654.106C457.442 653.387 457.062 652.413 457.062 651.397C457.062 650.381 457.442 649.406 458.117 648.687C458.792 647.968 459.707 647.563 460.663 647.562H553.217C557.867 647.493 557.914 655.301 553.217 655.231Z" fill="#E4E4E4"/>
<path d="M553.217 671.851H460.668C459.712 671.851 458.795 671.447 458.119 670.728C457.442 670.009 457.062 669.034 457.062 668.017C457.062 666.999 457.442 666.024 458.119 665.305C458.795 664.586 459.712 664.182 460.668 664.182H553.217C557.867 664.113 557.914 671.921 553.217 671.851Z" fill="#E4E4E4"/>
<rect x="591" y="452" width="2" height="30" fill="#0F1A20"/>
</svg>
