<svg width="36" height="36" viewBox="0 0 36 36" fill="none" xmlns="http://www.w3.org/2000/svg">
<path d="M18.0007 0.719727C8.4571 0.719727 0.720703 8.45613 0.720703 17.9997C0.720703 27.5433 8.4571 35.2797 18.0007 35.2797C27.5443 35.2797 35.2807 27.5433 35.2807 17.9997C35.2807 8.45613 27.5443 0.719727 18.0007 0.719727ZM13.7707 25.1619H10.2715V13.9011H13.7707V25.1619ZM11.9995 12.5187C10.8943 12.5187 10.1797 11.7357 10.1797 10.7673C10.1797 9.77913 10.9159 9.01953 12.0445 9.01953C13.1731 9.01953 13.8643 9.77913 13.8859 10.7673C13.8859 11.7357 13.1731 12.5187 11.9995 12.5187ZM26.5507 25.1619H23.0515V18.9213C23.0515 17.4687 22.5439 16.4823 21.2785 16.4823C20.3119 16.4823 19.7377 17.1501 19.4839 17.7927C19.3903 18.0213 19.3669 18.3453 19.3669 18.6675V25.1601H15.8659V17.4921C15.8659 16.0863 15.8209 14.9109 15.7741 13.8993H18.8143L18.9745 15.4635H19.0447C19.5055 14.7291 20.6341 13.6455 22.5223 13.6455C24.8245 13.6455 26.5507 15.1881 26.5507 18.5037V25.1619Z" fill="#F9B9F2"/>
</svg>
