<svg width="107" height="107" viewBox="0 0 107 107" fill="none" xmlns="http://www.w3.org/2000/svg">
<circle cx="53.5" cy="53.5" r="53.5" fill="#F9B9F2"/>
<path d="M33.375 29.25C33.375 27.062 34.2442 24.9635 35.7914 23.4164C37.3385 21.8692 39.437 21 41.625 21H66.375C68.563 21 70.6615 21.8692 72.2086 23.4164C73.7558 24.9635 74.625 27.062 74.625 29.25V78.75C74.625 80.938 73.7558 83.0365 72.2086 84.5836C70.6615 86.1308 68.563 87 66.375 87H41.625C39.437 87 37.3385 86.1308 35.7914 84.5836C34.2442 83.0365 33.375 80.938 33.375 78.75V29.25ZM58.125 74.625C58.125 73.531 57.6904 72.4818 56.9168 71.7082C56.1432 70.9346 55.094 70.5 54 70.5C52.906 70.5 51.8568 70.9346 51.0832 71.7082C50.3096 72.4818 49.875 73.531 49.875 74.625C49.875 75.719 50.3096 76.7682 51.0832 77.5418C51.8568 78.3154 52.906 78.75 54 78.75C55.094 78.75 56.1432 78.3154 56.9168 77.5418C57.6904 76.7682 58.125 75.719 58.125 74.625Z" fill="#0F1A20"/>
</svg>
