<svg width="107" height="107" viewBox="0 0 107 107" fill="none" xmlns="http://www.w3.org/2000/svg">
<circle cx="53.5" cy="53.5" r="53.5" fill="#F9B9F2"/>
<path d="M77.968 75.4375H84.718C85.3593 75.4377 85.9767 75.6813 86.4453 76.1192C86.9139 76.557 87.1989 77.1564 87.2426 77.7962C87.2863 78.4361 87.0855 79.0686 86.6808 79.5661C86.2761 80.0636 85.6976 80.389 85.0622 80.4764L84.718 80.5H80.4992V84.7188C80.499 85.3601 80.2554 85.9774 79.8176 86.446C79.3797 86.9147 78.7804 87.1996 78.1405 87.2433C77.5007 87.2871 76.8681 87.0863 76.3706 86.6815C75.8731 86.2768 75.5478 85.6983 75.4604 85.063L75.4367 84.7188V77.9688C75.4368 77.3571 75.6583 76.7661 76.0603 76.3051C76.4624 75.8441 77.0177 75.5443 77.6237 75.4611L77.968 75.4375H84.718H77.968ZM22.2805 75.4375H29.0305C29.6422 75.4375 30.2331 75.659 30.6941 76.0611C31.1551 76.4631 31.4549 77.0185 31.5381 77.6245L31.5617 77.9688V84.7188C31.5615 85.3601 31.3179 85.9774 30.8801 86.446C30.4422 86.9147 29.8428 87.1996 29.203 87.2433C28.5632 87.2871 27.9306 87.0863 27.4331 86.6815C26.9356 86.2768 26.6103 85.6983 26.5229 85.063L26.4992 84.7188V80.5H22.2805C21.6391 80.4998 21.0218 80.2562 20.5532 79.8183C20.0846 79.3805 19.7996 78.7811 19.7559 78.1413C19.7122 77.5014 19.913 76.8689 20.3177 76.3714C20.7224 75.8739 21.3009 75.5485 21.9362 75.4611L22.2805 75.4375H29.0305H22.2805ZM69.5305 31.5726C70.2018 31.5726 70.8456 31.8393 71.3203 32.314C71.795 32.7887 72.0617 33.4325 72.0617 34.1039V72.9062C72.0617 73.5776 71.795 74.2214 71.3203 74.6961C70.8456 75.1708 70.2018 75.4375 69.5305 75.4375H37.4747C36.8034 75.4375 36.1596 75.1708 35.6849 74.6961C35.2102 74.2214 34.9435 73.5776 34.9435 72.9062V34.1039C34.9435 33.4325 35.2102 32.7887 35.6849 32.314C36.1596 31.8393 36.8034 31.5726 37.4747 31.5726H69.5372H69.5305ZM54.3497 55.2347H45.9055L45.5612 55.2584C44.9554 55.3417 44.4002 55.6416 43.9983 56.1026C43.5964 56.5636 43.375 57.1544 43.375 57.766C43.375 58.3776 43.5964 58.9684 43.9983 59.4294C44.4002 59.8904 44.9554 60.1903 45.5612 60.2736L45.9055 60.2972H54.3497L54.694 60.2736C55.3293 60.1862 55.9078 59.8609 56.3125 59.3634C56.7172 58.8659 56.918 58.2333 56.8743 57.5935C56.8306 56.9536 56.5456 56.3542 56.077 55.9164C55.6084 55.4786 54.9911 55.2349 54.3497 55.2347V55.2347ZM61.0997 45.0625H45.9055L45.5612 45.0861C44.9554 45.1695 44.4002 45.4694 43.9983 45.9303C43.5964 46.3913 43.375 46.9822 43.375 47.5938C43.375 48.2053 43.5964 48.7962 43.9983 49.2572C44.4002 49.7181 44.9554 50.018 45.5612 50.1014L45.9055 50.125H61.0997L61.444 50.1014C62.0793 50.014 62.6578 49.6886 63.0625 49.1911C63.4672 48.6936 63.668 48.0611 63.6243 47.4212C63.5806 46.7814 63.2957 46.182 62.827 45.7442C62.3584 45.3063 61.7411 45.0627 61.0997 45.0625V45.0625ZM29.0305 19.75C29.6422 19.75 30.2331 19.9715 30.6941 20.3736C31.1551 20.7756 31.4549 21.331 31.5381 21.937L31.5617 22.2812V29.0312C31.5617 29.6429 31.3402 30.2339 30.9381 30.6949C30.5361 31.1559 29.9807 31.4557 29.3747 31.5389L29.0305 31.5625H22.2805C21.6391 31.5623 21.0218 31.3187 20.5532 30.8808C20.0846 30.443 19.7996 29.8436 19.7559 29.2038C19.7122 28.5639 19.913 27.9314 20.3177 27.4339C20.7224 26.9364 21.3009 26.611 21.9362 26.5236L22.2805 26.5H26.4992V22.2812C26.4992 21.6099 26.7659 20.9661 27.2406 20.4914C27.7153 20.0167 28.3591 19.75 29.0305 19.75ZM77.968 19.75C78.5797 19.75 79.1706 19.9715 79.6316 20.3736C80.0926 20.7756 80.3924 21.331 80.4756 21.937L80.4992 22.2812V26.5H84.718C85.3593 26.5002 85.9767 26.7438 86.4453 27.1817C86.9139 27.6195 87.1989 28.2189 87.2426 28.8587C87.2863 29.4986 87.0855 30.1311 86.6808 30.6286C86.2761 31.1261 85.6976 31.4515 85.0622 31.5389L84.718 31.5625H77.968C77.3563 31.5625 76.7653 31.341 76.3043 30.9389C75.8434 30.5369 75.5435 29.9815 75.4604 29.3755L75.4367 29.0312V22.2812C75.4367 21.6099 75.7034 20.9661 76.1781 20.4914C76.6528 20.0167 77.2967 19.75 77.968 19.75V19.75Z" fill="#0F1A20"/>
</svg>
