<svg width="550" height="435" viewBox="0 0 550 435" fill="none" xmlns="http://www.w3.org/2000/svg">
<path d="M109.676 2.24229e-07H440.333C443.994 -0.000508517 447.602 0.864682 450.864 2.52485C454.125 4.18501 456.948 6.59303 459.1 9.55207L547.784 131.411C549.361 133.579 550.137 136.226 549.98 138.902C549.824 141.578 548.744 144.116 546.926 146.086L283.518 431.281C282.432 432.454 281.115 433.39 279.65 434.03C278.185 434.67 276.604 435 275.005 435C273.406 435 271.824 434.67 270.359 434.03C268.894 433.39 267.577 432.454 266.491 431.281L3.08371 146.11C1.25925 144.138 0.176255 141.595 0.0197113 138.914C-0.136833 136.233 0.642786 133.581 2.2254 131.411L90.9094 9.55207C93.0617 6.59303 95.884 4.18501 99.1457 2.52485C102.407 0.864682 106.016 -0.000508517 109.676 2.24229e-07Z" fill="#735CDD"/>
<path d="M180.602 210.412H366.696V229.022H180.602V210.412ZM264.344 108.06H282.953V182.498H264.344V108.06ZM236.104 108.06H255.877L228.093 182.163H209.483L181.7 108.06H201.472L218.788 155.635L236.104 108.06ZM320.172 163.889V182.498H301.563V108.06H338.782C346.185 108.06 353.285 111.001 358.52 116.236C363.755 121.471 366.696 128.571 366.696 135.974C366.696 143.378 363.755 150.478 358.52 155.713C353.285 160.948 346.185 163.889 338.782 163.889H320.172ZM320.172 126.67V145.279H338.782C341.249 145.279 343.616 144.299 345.361 142.554C347.106 140.809 348.086 138.442 348.086 135.974C348.086 133.507 347.106 131.14 345.361 129.395C343.616 127.65 341.249 126.67 338.782 126.67H320.172ZM180.602 61.5369H366.696V80.1463H180.602V61.5369Z" fill="#FFBE0B"/>
<path d="M184.616 266.462C184.616 264.222 185.064 262.227 185.96 260.478C186.877 258.728 188.179 257.374 189.864 256.414C191.549 255.432 193.533 254.942 195.816 254.942C197.779 254.942 199.528 255.315 201.064 256.062C202.621 256.787 203.88 257.822 204.84 259.166C205.821 260.51 206.472 262.078 206.792 263.87H199.304C198.963 263.123 198.472 262.547 197.832 262.142C197.213 261.715 196.499 261.502 195.688 261.502C194.493 261.502 193.544 261.95 192.84 262.846C192.157 263.742 191.816 264.947 191.816 266.462C191.816 267.976 192.157 269.182 192.84 270.078C193.544 270.974 194.493 271.422 195.688 271.422C196.499 271.422 197.213 271.219 197.832 270.814C198.472 270.387 198.963 269.8 199.304 269.054H206.792C206.472 270.846 205.821 272.414 204.84 273.758C203.88 275.102 202.621 276.147 201.064 276.894C199.528 277.619 197.779 277.982 195.816 277.982C193.533 277.982 191.549 277.502 189.864 276.542C188.179 275.56 186.877 274.195 185.96 272.446C185.064 270.696 184.616 268.702 184.616 266.462ZM216.294 255.166V267.934C216.294 268.979 216.518 269.811 216.966 270.43C217.435 271.027 218.182 271.326 219.206 271.326C220.23 271.326 220.987 271.027 221.478 270.43C221.969 269.811 222.214 268.979 222.214 267.934V255.166H229.286V267.934C229.286 270.088 228.838 271.934 227.942 273.47C227.046 274.984 225.819 276.126 224.262 276.894C222.705 277.662 220.966 278.046 219.046 278.046C217.126 278.046 215.419 277.662 213.926 276.894C212.454 276.126 211.302 274.984 210.47 273.47C209.638 271.955 209.222 270.11 209.222 267.934V255.166H216.294ZM241.214 278.046C238.505 278.046 236.265 277.416 234.494 276.158C232.745 274.878 231.795 273.011 231.646 270.558H239.198C239.305 271.859 239.881 272.51 240.926 272.51C241.31 272.51 241.63 272.424 241.886 272.254C242.163 272.062 242.302 271.774 242.302 271.39C242.302 270.856 242.014 270.43 241.438 270.11C240.862 269.768 239.966 269.384 238.75 268.958C237.299 268.446 236.094 267.944 235.134 267.454C234.195 266.963 233.385 266.248 232.702 265.31C232.019 264.371 231.689 263.166 231.71 261.694C231.71 260.222 232.083 258.974 232.83 257.95C233.598 256.904 234.633 256.115 235.934 255.582C237.257 255.048 238.739 254.782 240.382 254.782C243.155 254.782 245.353 255.422 246.974 256.702C248.617 257.982 249.481 259.784 249.566 262.11H241.918C241.897 261.47 241.737 261.011 241.438 260.734C241.139 260.456 240.777 260.318 240.35 260.318C240.051 260.318 239.806 260.424 239.614 260.638C239.422 260.83 239.326 261.107 239.326 261.47C239.326 261.982 239.603 262.408 240.158 262.75C240.734 263.07 241.641 263.464 242.878 263.934C244.307 264.467 245.481 264.979 246.398 265.47C247.337 265.96 248.147 266.643 248.83 267.518C249.513 268.392 249.854 269.491 249.854 270.814C249.854 272.2 249.513 273.448 248.83 274.558C248.147 275.646 247.155 276.499 245.854 277.118C244.553 277.736 243.006 278.046 241.214 278.046ZM270.142 255.166V260.798H264.126V277.822H257.022V260.798H251.07V255.166H270.142ZM283.109 278.046C280.975 278.046 279.013 277.544 277.221 276.542C275.45 275.539 274.042 274.152 272.997 272.382C271.951 270.611 271.429 268.616 271.429 266.398C271.429 264.179 271.951 262.184 272.997 260.414C274.042 258.643 275.45 257.267 277.221 256.286C279.013 255.283 280.975 254.782 283.109 254.782C285.242 254.782 287.194 255.283 288.965 256.286C290.735 257.267 292.133 258.643 293.157 260.414C294.202 262.184 294.725 264.179 294.725 266.398C294.725 268.616 294.202 270.611 293.157 272.382C292.133 274.152 290.725 275.539 288.933 276.542C287.162 277.544 285.221 278.046 283.109 278.046ZM283.109 271.422C284.517 271.422 285.605 270.974 286.373 270.078C287.141 269.16 287.525 267.934 287.525 266.398C287.525 264.84 287.141 263.614 286.373 262.718C285.605 261.8 284.517 261.342 283.109 261.342C281.679 261.342 280.581 261.8 279.813 262.718C279.045 263.614 278.661 264.84 278.661 266.398C278.661 267.934 279.045 269.16 279.813 270.078C280.581 270.974 281.679 271.422 283.109 271.422ZM324.519 255.166V277.822H317.447V266.526L313.959 277.822H307.879L304.391 266.526V277.822H297.287V255.166H305.991L310.983 268.766L315.847 255.166H324.519ZM334.829 260.83V263.614H341.869V268.958H334.829V272.158H342.829V277.822H327.725V255.166H342.829V260.83H334.829ZM356.898 277.822L352.642 269.694H352.61V277.822H345.506V255.166H356.066C357.901 255.166 359.469 255.496 360.77 256.158C362.071 256.798 363.042 257.683 363.682 258.814C364.343 259.923 364.674 261.182 364.674 262.59C364.674 264.104 364.247 265.448 363.394 266.622C362.562 267.795 361.357 268.638 359.778 269.15L364.706 277.822H356.898ZM352.61 264.958H355.426C356.109 264.958 356.621 264.808 356.962 264.51C357.303 264.19 357.474 263.699 357.474 263.038C357.474 262.44 357.293 261.971 356.93 261.63C356.589 261.288 356.087 261.118 355.426 261.118H352.61V264.958ZM209.495 307.046C206.786 307.046 204.546 306.416 202.775 305.158C201.026 303.878 200.076 302.011 199.927 299.558H207.479C207.586 300.859 208.162 301.51 209.207 301.51C209.591 301.51 209.911 301.424 210.167 301.254C210.444 301.062 210.583 300.774 210.583 300.39C210.583 299.856 210.295 299.43 209.719 299.11C209.143 298.768 208.247 298.384 207.031 297.958C205.58 297.446 204.375 296.944 203.415 296.454C202.476 295.963 201.666 295.248 200.983 294.31C200.3 293.371 199.97 292.166 199.991 290.694C199.991 289.222 200.364 287.974 201.111 286.95C201.879 285.904 202.914 285.115 204.215 284.582C205.538 284.048 207.02 283.782 208.663 283.782C211.436 283.782 213.634 284.422 215.255 285.702C216.898 286.982 217.762 288.784 217.847 291.11H210.199C210.178 290.47 210.018 290.011 209.719 289.734C209.42 289.456 209.058 289.318 208.631 289.318C208.332 289.318 208.087 289.424 207.895 289.638C207.703 289.83 207.607 290.107 207.607 290.47C207.607 290.982 207.884 291.408 208.439 291.75C209.015 292.07 209.922 292.464 211.159 292.934C212.588 293.467 213.762 293.979 214.679 294.47C215.618 294.96 216.428 295.643 217.111 296.518C217.794 297.392 218.135 298.491 218.135 299.814C218.135 301.2 217.794 302.448 217.111 303.558C216.428 304.646 215.436 305.499 214.135 306.118C212.834 306.736 211.287 307.046 209.495 307.046ZM227.575 284.166V296.934C227.575 297.979 227.799 298.811 228.247 299.43C228.716 300.027 229.463 300.326 230.487 300.326C231.511 300.326 232.268 300.027 232.759 299.43C233.25 298.811 233.495 297.979 233.495 296.934V284.166H240.567V296.934C240.567 299.088 240.119 300.934 239.223 302.47C238.327 303.984 237.1 305.126 235.543 305.894C233.986 306.662 232.247 307.046 230.327 307.046C228.407 307.046 226.7 306.662 225.207 305.894C223.735 305.126 222.583 303.984 221.751 302.47C220.919 300.955 220.503 299.11 220.503 296.934V284.166H227.575ZM262.159 291.942C262.159 293.371 261.828 294.672 261.167 295.846C260.506 296.998 259.524 297.915 258.223 298.598C256.943 299.28 255.386 299.622 253.551 299.622H250.735V306.822H243.631V284.166H253.551C256.324 284.166 258.447 284.87 259.919 286.278C261.412 287.686 262.159 289.574 262.159 291.942ZM252.751 294.022C254.223 294.022 254.959 293.328 254.959 291.942C254.959 290.555 254.223 289.862 252.751 289.862H250.735V294.022H252.751ZM282.94 291.942C282.94 293.371 282.61 294.672 281.948 295.846C281.287 296.998 280.306 297.915 279.004 298.598C277.724 299.28 276.167 299.622 274.332 299.622H271.516V306.822H264.412V284.166H274.332C277.106 284.166 279.228 284.87 280.7 286.278C282.194 287.686 282.94 289.574 282.94 291.942ZM273.532 294.022C275.004 294.022 275.74 293.328 275.74 291.942C275.74 290.555 275.004 289.862 273.532 289.862H271.516V294.022H273.532ZM296.234 307.046C294.1 307.046 292.138 306.544 290.346 305.542C288.575 304.539 287.167 303.152 286.122 301.382C285.076 299.611 284.554 297.616 284.554 295.398C284.554 293.179 285.076 291.184 286.122 289.414C287.167 287.643 288.575 286.267 290.346 285.286C292.138 284.283 294.1 283.782 296.234 283.782C298.367 283.782 300.319 284.283 302.09 285.286C303.86 286.267 305.258 287.643 306.282 289.414C307.327 291.184 307.85 293.179 307.85 295.398C307.85 297.616 307.327 299.611 306.282 301.382C305.258 303.152 303.85 304.539 302.058 305.542C300.287 306.544 298.346 307.046 296.234 307.046ZM296.234 300.422C297.642 300.422 298.73 299.974 299.498 299.078C300.266 298.16 300.65 296.934 300.65 295.398C300.65 293.84 300.266 292.614 299.498 291.718C298.73 290.8 297.642 290.342 296.234 290.342C294.804 290.342 293.706 290.8 292.938 291.718C292.17 292.614 291.786 293.84 291.786 295.398C291.786 296.934 292.17 298.16 292.938 299.078C293.706 299.974 294.804 300.422 296.234 300.422ZM321.804 306.822L317.548 298.694H317.516V306.822H310.412V284.166H320.972C322.807 284.166 324.375 284.496 325.676 285.158C326.978 285.798 327.948 286.683 328.588 287.814C329.25 288.923 329.58 290.182 329.58 291.59C329.58 293.104 329.154 294.448 328.3 295.622C327.468 296.795 326.263 297.638 324.684 298.15L329.612 306.822H321.804ZM317.516 293.958H320.332C321.015 293.958 321.527 293.808 321.868 293.51C322.21 293.19 322.38 292.699 322.38 292.038C322.38 291.44 322.199 290.971 321.836 290.63C321.495 290.288 320.994 290.118 320.332 290.118H317.516V293.958ZM349.642 284.166V289.798H343.626V306.822H336.522V289.798H330.57V284.166H349.642Z" fill="#FFBE0B"/>
</svg>
