<svg width="66" height="66" viewBox="0 0 66 66" fill="none" xmlns="http://www.w3.org/2000/svg">
<path fill-rule="evenodd" clip-rule="evenodd" d="M33 2.75C16.2938 2.75 2.75 16.2938 2.75 33C2.75 49.7062 16.2938 63.25 33 63.25C49.7062 63.25 63.25 49.7062 63.25 33C63.25 16.2938 49.7062 2.75 33 2.75ZM43.1942 26.6942C43.6952 26.1756 43.9724 25.4809 43.9661 24.7599C43.9598 24.0389 43.6706 23.3491 43.1608 22.8392C42.6509 22.3294 41.9611 22.0402 41.2401 22.0339C40.5191 22.0276 39.8244 22.3048 39.3058 22.8058L33 29.1115L26.6942 22.8058C26.4406 22.5431 26.1371 22.3336 25.8016 22.1895C25.4661 22.0453 25.1052 21.9695 24.7401 21.9663C24.375 21.9631 24.0128 22.0327 23.6749 22.171C23.3369 22.3093 23.0299 22.5135 22.7717 22.7717C22.5135 23.0299 22.3093 23.3369 22.171 23.6749C22.0327 24.0128 21.9631 24.375 21.9663 24.7401C21.9695 25.1052 22.0453 25.4661 22.1895 25.8016C22.3336 26.1371 22.5431 26.4406 22.8058 26.6942L29.1115 33L22.8058 39.3058C22.5431 39.5594 22.3336 39.8629 22.1895 40.1984C22.0453 40.5339 21.9695 40.8948 21.9663 41.2599C21.9631 41.625 22.0327 41.9872 22.171 42.3251C22.3093 42.6631 22.5135 42.9701 22.7717 43.2283C23.0299 43.4865 23.3369 43.6907 23.6749 43.829C24.0128 43.9673 24.375 44.0369 24.7401 44.0337C25.1052 44.0305 25.4661 43.9547 25.8016 43.8105C26.1371 43.6664 26.4406 43.4569 26.6942 43.1942L33 36.8885L39.3058 43.1942C39.8244 43.6952 40.5191 43.9724 41.2401 43.9661C41.9611 43.9598 42.6509 43.6706 43.1608 43.1608C43.6706 42.6509 43.9598 41.9611 43.9661 41.2401C43.9724 40.5191 43.6952 39.8244 43.1942 39.3058L36.8885 33L43.1942 26.6942Z" fill="#82204A"/>
</svg>
